<?xml version="1.0" standalone="no"?>
<!DOCTYPE svg PUBLIC "-//W3C//DTD SVG 20010904//EN"
 "http://www.w3.org/TR/2001/REC-SVG-20010904/DTD/svg10.dtd">
<svg version="1.0" xmlns="http://www.w3.org/2000/svg"
 width="1080.000000pt" height="1080.000000pt" viewBox="0 0 1080.000000 1080.000000"
 preserveAspectRatio="xMidYMid meet">
<metadata>
Created by potrace 1.14, written by Peter Selinger 2001-2017
</metadata>
<g transform="translate(0.000000,1080.000000) scale(0.100000,-0.100000)"
fill="#000000" stroke="none">
<path d="M5435 10632 c-52 -11 -174 -131 -835 -822 -42 -45 -201 -215 -252
-271 -76 -83 -217 -236 -238 -259 -14 -14 -74 -82 -135 -151 -60 -68 -126
-142 -145 -163 -19 -22 -44 -49 -55 -61 -63 -71 -144 -164 -235 -270 -178
-208 -195 -228 -205 -239 -18 -19 -310 -374 -464 -565 -19 -23 -85 -108 -148
-189 -62 -81 -119 -154 -126 -162 -7 -8 -26 -33 -42 -55 -17 -22 -34 -45 -40
-52 -27 -34 -90 -118 -206 -278 -52 -71 -97 -131 -101 -133 -5 -2 -8 -8 -8
-14 0 -6 -13 -27 -28 -47 -71 -90 -392 -581 -463 -707 -13 -23 -55 -95 -92
-160 -70 -123 -225 -427 -266 -524 -13 -30 -32 -73 -42 -95 -80 -178 -162
-464 -196 -685 -7 -44 -6 -378 1 -488 6 -89 8 -108 31 -282 24 -182 26 -194
31 -210 3 -8 8 -35 11 -60 3 -25 9 -52 13 -60 4 -8 10 -33 14 -55 16 -92 131
-484 166 -560 5 -11 20 -49 34 -85 92 -238 231 -509 387 -752 296 -461 702
-886 1154 -1207 230 -164 490 -312 745 -426 141 -63 331 -137 380 -150 8 -2
27 -8 43 -14 80 -31 409 -117 522 -137 17 -2 68 -12 114 -20 46 -9 98 -17 115
-19 60 -7 131 -15 166 -20 220 -30 743 -24 980 10 14 2 50 7 80 10 64 7 99 13
155 25 22 5 60 11 85 15 25 3 72 13 105 22 33 8 71 17 85 19 94 17 448 131
610 197 432 177 869 444 1215 742 164 142 433 420 550 569 22 28 42 53 45 56
10 9 87 114 146 200 319 458 548 972 672 1515 17 72 32 144 35 160 3 17 10 57
15 90 13 72 19 113 27 180 3 28 7 66 10 85 13 99 19 236 20 430 0 238 -12 325
-80 560 -74 257 -227 609 -389 894 -31 54 -56 100 -56 102 0 2 -36 62 -80 135
-44 72 -80 135 -80 139 0 5 -3 10 -7 12 -5 2 -35 46 -67 98 -173 275 -468 691
-765 1075 -152 197 -470 596 -491 615 -3 3 -34 41 -69 85 -36 44 -81 98 -100
121 -20 22 -45 51 -56 65 -22 27 -120 142 -199 233 -67 78 -277 318 -290 332
-10 9 -94 104 -143 160 -18 21 -156 173 -203 224 -14 15 -61 67 -105 115 -44
49 -98 108 -120 130 -22 23 -67 71 -99 106 -120 130 -348 368 -604 629 -184
188 -273 272 -296 280 -38 12 -111 19 -141 12z"/>
</g>
</svg>
